<?xml version="1.0" standalone="no"?>
<!DOCTYPE svg PUBLIC "-//W3C//DTD SVG 20010904//EN"
 "http://www.w3.org/TR/2001/REC-SVG-20010904/DTD/svg10.dtd">
<svg version="1.0" xmlns="http://www.w3.org/2000/svg"
 width="1113.000000pt" height="1113.000000pt" viewBox="0 0 1113.000000 1113.000000"
 preserveAspectRatio="xMidYMid meet">
<metadata>
Created by potrace 1.14, written by Peter Selinger 2001-2017
</metadata>
<g transform="translate(0.000000,1113.000000) scale(0.100000,-0.100000)"
fill="#000000" stroke="none">
<path d="M6988 11125 c-2 -1 -55 -5 -118 -9 -63 -4 -133 -9 -155 -11 -22 -2
-68 -7 -102 -10 -34 -3 -72 -8 -85 -10 -13 -2 -59 -9 -104 -15 -44 -6 -91 -13
-105 -15 -32 -7 -66 -13 -109 -20 -19 -3 -46 -8 -60 -10 -14 -3 -34 -7 -45 -9
-11 -3 -42 -10 -70 -16 -27 -7 -63 -14 -80 -17 -16 -3 -91 -21 -165 -40 -74
-19 -139 -36 -145 -37 -5 -2 -37 -11 -70 -21 -33 -10 -64 -20 -70 -21 -39 -7
-409 -138 -549 -194 -252 -100 -614 -269 -786 -367 -19 -11 -84 -48 -145 -82
-60 -34 -123 -70 -140 -79 -16 -9 -32 -20 -35 -23 -3 -3 -32 -21 -65 -39 -33
-19 -65 -39 -71 -45 -6 -5 -27 -19 -47 -30 -20 -11 -37 -23 -37 -27 0 -5 -7
-8 -15 -8 -8 0 -15 -4 -15 -10 0 -5 -5 -10 -10 -10 -12 0 -149 -91 -173 -114
-8 -8 -17 -12 -21 -9 -3 4 -6 1 -6 -5 0 -7 -6 -12 -14 -12 -8 0 -16 -4 -18 -8
-1 -4 -25 -23 -53 -42 -27 -19 -56 -40 -65 -47 -8 -7 -42 -32 -75 -57 -33 -25
-64 -49 -70 -53 -5 -5 -37 -29 -70 -55 -33 -25 -70 -54 -82 -64 -11 -11 -35
-30 -52 -44 -17 -14 -42 -34 -54 -45 -13 -11 -48 -40 -78 -65 -29 -25 -65 -56
-79 -68 -14 -13 -52 -47 -84 -75 -175 -153 -490 -469 -651 -652 -38 -44 -75
-84 -81 -90 -9 -8 -111 -130 -189 -224 -11 -14 -35 -41 -52 -61 -18 -21 -30
-40 -26 -44 3 -3 2 -6 -4 -6 -5 0 -25 -21 -43 -47 -18 -27 -40 -55 -48 -63
-11 -12 -68 -88 -165 -222 -72 -101 -226 -336 -313 -478 -38 -63 -73 -122 -79
-131 -5 -10 -22 -39 -36 -65 -15 -27 -43 -78 -63 -114 -85 -152 -336 -674
-342 -709 -1 -9 -24 -63 -40 -95 -8 -16 -14 -33 -14 -39 0 -5 -6 -23 -14 -40
-8 -18 -24 -59 -35 -92 -12 -33 -26 -69 -31 -80 -5 -11 -14 -36 -19 -55 -6
-19 -20 -62 -31 -95 -12 -33 -23 -67 -25 -75 -2 -8 -15 -51 -28 -95 -23 -73
-51 -172 -62 -218 -2 -10 -7 -27 -10 -37 -3 -10 -8 -27 -10 -37 -3 -10 -9 -38
-16 -63 -6 -25 -13 -56 -15 -70 -3 -14 -7 -33 -10 -42 -3 -10 -7 -28 -10 -40
-2 -13 -6 -34 -9 -48 -3 -14 -14 -74 -25 -135 -11 -60 -22 -119 -24 -131 -2
-11 -7 -45 -10 -75 -3 -30 -8 -65 -11 -79 -2 -14 -7 -43 -9 -65 -5 -37 -9 -68
-21 -195 -18 -190 -23 -478 -11 -711 8 -167 10 -186 32 -359 11 -84 26 -178
34 -220 6 -25 12 -61 15 -80 3 -19 17 -82 31 -140 14 -58 27 -112 29 -120 5
-24 75 -253 82 -270 3 -8 7 -17 8 -20 1 -3 6 -16 12 -30 6 -14 20 -52 31 -86
36 -106 155 -356 244 -510 47 -83 194 -313 207 -324 3 -3 26 -32 51 -65 25
-33 51 -64 57 -68 7 -4 13 -12 13 -17 0 -8 23 -36 110 -132 87 -96 304 -308
316 -308 3 0 18 -14 34 -30 16 -17 32 -30 35 -30 3 0 18 -12 33 -26 15 -14 39
-33 55 -42 15 -9 27 -20 27 -24 0 -4 6 -8 14 -8 8 0 16 -4 18 -8 3 -7 101 -79
147 -107 9 -5 18 -12 21 -15 6 -6 16 -12 170 -100 174 -100 333 -175 520 -247
137 -52 351 -120 440 -139 13 -3 61 -14 106 -24 45 -11 97 -22 116 -25 18 -3
40 -8 48 -10 8 -3 33 -7 55 -10 22 -3 51 -7 65 -10 64 -13 249 -35 340 -40 47
-3 112 -8 145 -10 81 -7 399 -7 510 -1 108 6 289 21 375 32 69 8 234 32 275
40 11 2 58 11 105 19 109 18 141 25 162 31 10 3 30 7 45 10 16 3 36 7 45 10 9
3 25 6 35 8 11 3 65 16 121 31 56 15 107 28 114 29 22 4 93 25 160 47 35 11
70 22 78 24 58 15 341 115 445 157 82 34 99 41 105 43 3 1 22 9 44 18 21 9 40
17 42 17 1 0 42 18 89 40 47 22 89 40 91 40 7 0 341 167 424 212 36 19 97 52
135 73 39 20 77 44 86 51 9 8 19 11 22 7 4 -3 7 -2 7 4 0 5 19 19 43 32 52 27
80 44 87 52 3 3 20 14 39 24 19 9 55 31 81 49 25 17 53 36 62 41 65 42 220
147 279 190 31 22 66 47 79 55 12 8 77 57 143 108 178 136 176 135 201 157 12
11 41 35 64 53 22 19 50 41 61 50 10 10 36 31 58 49 21 17 59 51 85 75 25 24
67 61 94 83 56 48 487 476 559 556 28 31 75 84 105 118 30 35 64 73 75 85 11
12 49 57 85 101 35 44 67 82 70 85 9 7 92 112 115 144 11 16 25 33 30 40 6 6
30 38 55 71 25 33 48 62 53 63 4 2 7 10 7 18 0 8 7 17 15 20 8 4 15 12 15 19
0 6 9 20 20 30 11 10 20 24 20 32 0 7 3 13 8 13 4 0 20 21 37 48 16 26 34 52
40 58 12 14 20 25 86 129 29 44 67 103 85 130 18 28 38 62 45 78 7 15 16 27
20 27 4 0 11 10 15 22 3 12 25 51 48 87 23 36 57 95 75 131 19 36 39 72 45 80
6 8 23 39 36 67 14 29 28 53 33 53 4 0 7 5 7 11 0 16 92 203 102 207 4 2 8 9
8 16 0 7 16 45 35 85 19 39 35 74 35 77 0 3 14 36 31 72 17 37 47 108 66 157
19 50 41 104 49 120 20 44 131 366 161 465 47 161 102 359 110 400 2 14 17 84
33 155 26 122 31 146 45 235 3 19 10 60 15 90 5 30 12 77 16 105 3 27 8 61 10
75 1 14 6 57 9 95 4 39 9 86 11 105 27 253 21 803 -11 1000 -2 14 -6 48 -9 75
-6 50 -15 113 -22 150 -2 11 -7 34 -9 50 -3 17 -10 57 -16 90 -12 67 -51 232
-75 315 -9 30 -17 59 -19 65 -1 5 -5 17 -8 25 -3 8 -15 44 -26 80 -10 36 -25
79 -32 95 -6 17 -13 35 -14 41 -5 22 -78 199 -86 208 -5 6 -9 18 -9 28 0 10
-4 18 -10 18 -5 0 -10 4 -10 10 0 5 -11 34 -25 65 -13 30 -25 59 -25 63 -1 4
-7 14 -15 22 -7 8 -29 47 -48 85 -19 39 -47 87 -61 108 -14 21 -26 41 -26 46
0 4 -9 18 -20 31 -11 13 -20 29 -20 36 0 7 -3 14 -7 16 -5 2 -28 32 -52 68
-25 36 -48 67 -53 68 -4 2 -8 8 -8 13 0 10 -75 110 -114 152 -14 15 -26 30
-26 32 0 10 -73 90 -206 225 -103 105 -184 178 -294 266 -52 41 -103 82 -113
90 -9 8 -20 14 -23 14 -5 0 -73 48 -84 60 -12 13 -90 60 -99 60 -5 0 -11 3
-13 8 -9 21 -308 182 -458 248 -111 48 -201 84 -220 89 -8 2 -53 18 -100 35
-47 17 -86 31 -87 31 -2 0 -8 1 -15 4 -31 10 -195 55 -218 59 -14 3 -25 5 -25
7 0 1 -9 3 -20 4 -11 1 -47 10 -80 18 -33 9 -76 18 -95 21 -43 7 -79 13 -145
26 -27 5 -79 12 -115 16 -36 3 -67 7 -70 9 -3 1 -41 6 -85 10 -44 3 -105 8
-135 11 -55 5 -557 13 -562 9z"/>
</g>
</svg>
