<?xml version="1.0" standalone="no"?>
<!DOCTYPE svg PUBLIC "-//W3C//DTD SVG 20010904//EN"
 "http://www.w3.org/TR/2001/REC-SVG-20010904/DTD/svg10.dtd">
<svg version="1.0" xmlns="http://www.w3.org/2000/svg"
 width="509.000000pt" height="509.000000pt" viewBox="0 0 509.000000 509.000000"
 preserveAspectRatio="xMidYMid meet">
<metadata>
Created by potrace 1.14, written by Peter Selinger 2001-2017
</metadata>
<g transform="translate(0.000000,509.000000) scale(0.100000,-0.100000)"
fill="#000000" stroke="none">
<path d="M2188 4632 c-13 -3 -15 -13 -12 -50 3 -26 7 -72 9 -102 2 -30 6 -80
10 -110 4 -30 7 -81 7 -112 0 -38 4 -58 11 -58 7 0 6 -4 -3 -10 -8 -5 -10 -10
-5 -10 6 0 10 -23 9 -52 0 -29 3 -63 8 -76 5 -15 4 -21 -2 -17 -7 4 -7 -2 0
-19 5 -14 10 -60 11 -103 1 -43 5 -82 8 -88 3 -5 6 -39 7 -75 1 -36 5 -94 8
-130 4 -36 9 -90 12 -120 3 -30 6 -88 7 -127 1 -40 6 -73 11 -73 5 0 3 -6 -3
-14 -7 -8 -8 -17 -3 -20 5 -3 10 -31 12 -63 3 -71 8 -138 10 -138 1 0 3 -33 5
-72 2 -40 1 -73 -2 -73 -4 0 -84 58 -110 80 -7 6 -13 8 -13 5 0 -3 -12 6 -27
20 -16 14 -36 28 -45 31 -10 3 -18 10 -18 15 0 5 -5 9 -11 9 -6 0 -16 6 -23
13 -8 6 -24 19 -36 27 -12 8 -65 45 -116 83 -52 37 -97 67 -100 67 -4 0 -15 9
-25 21 -9 11 -21 21 -26 21 -4 0 -22 11 -39 24 -17 13 -34 24 -37 24 -4 0 -15
8 -26 18 -10 9 -54 42 -97 72 -44 30 -82 59 -86 65 -4 5 -8 6 -8 2 0 -5 -6 -2
-14 5 -8 8 -46 36 -85 63 -39 27 -71 53 -71 57 0 5 -4 6 -10 3 -5 -3 -10 -2
-10 3 0 5 -11 14 -25 20 -26 12 -40 22 -75 54 -10 9 -27 19 -39 23 -12 3 -21
11 -21 16 0 5 -8 13 -18 16 -9 4 -21 11 -27 15 -5 5 -37 28 -69 52 -58 42 -86
49 -86 20 0 -8 -9 -23 -20 -34 -11 -11 -20 -27 -20 -35 0 -8 -4 -15 -8 -15
-10 0 -37 -50 -34 -62 1 -5 -3 -8 -8 -8 -6 0 -14 -8 -18 -18 -11 -28 -126
-217 -134 -220 -5 -2 -8 -9 -8 -17 0 -7 -7 -18 -15 -25 -8 -7 -13 -16 -10 -20
3 -4 -2 -11 -11 -14 -8 -3 -13 -10 -10 -15 3 -5 -1 -14 -9 -21 -8 -7 -15 -19
-15 -26 0 -8 -4 -14 -10 -14 -5 0 -10 -6 -10 -14 0 -8 -6 -17 -12 -19 -8 -4
-4 -8 9 -12 13 -4 23 -11 23 -15 0 -5 13 -11 30 -15 16 -4 30 -11 30 -16 0 -6
5 -7 10 -4 6 3 10 1 10 -4 0 -6 3 -10 8 -9 11 2 106 -43 113 -55 4 -5 11 -7
17 -3 6 3 12 3 14 -1 1 -5 37 -24 78 -43 41 -19 77 -38 78 -42 2 -5 9 -8 15
-8 7 0 52 -20 100 -45 48 -24 87 -41 87 -37 0 4 4 2 8 -4 4 -5 50 -30 102 -54
52 -25 98 -49 101 -53 3 -5 9 -8 13 -8 12 1 121 -52 128 -63 4 -6 8 -8 8 -3 0
4 15 0 33 -10 17 -9 35 -16 40 -15 4 1 7 -2 7 -8 0 -6 3 -9 8 -8 4 1 67 -28
140 -64 72 -37 132 -64 132 -61 0 2 7 -3 16 -11 8 -9 24 -16 35 -16 10 0 19
-4 19 -10 0 -5 18 -15 40 -21 22 -7 40 -16 40 -21 0 -4 8 -8 18 -8 17 0 -181
-100 -225 -114 -13 -4 -23 -12 -23 -18 0 -6 -3 -9 -6 -6 -3 4 -32 -7 -64 -23
-32 -16 -64 -29 -69 -29 -6 0 -11 -4 -11 -10 0 -5 -6 -10 -13 -10 -7 0 -29 -9
-50 -20 -20 -11 -37 -17 -37 -13 0 3 -8 -1 -17 -9 -10 -8 -36 -23 -58 -33 -65
-29 -283 -133 -379 -181 -50 -24 -96 -44 -103 -44 -7 0 -13 -4 -13 -10 0 -5
-9 -10 -20 -10 -11 0 -20 -4 -20 -10 0 -5 -7 -10 -15 -10 -9 0 -27 -8 -42 -17
-14 -10 -33 -18 -41 -19 -8 -2 -19 -9 -23 -16 -5 -7 -9 -10 -9 -6 0 4 -35 -10
-77 -31 -43 -21 -104 -51 -136 -66 -62 -30 -67 -45 -26 -88 10 -11 16 -24 13
-29 -3 -4 -1 -8 3 -8 5 0 17 -17 28 -37 11 -21 22 -40 25 -43 3 -3 33 -50 65
-104 33 -55 70 -115 83 -135 12 -20 25 -44 28 -53 4 -10 10 -18 15 -18 5 0 9
-6 9 -14 0 -8 6 -21 13 -28 6 -7 19 -26 27 -42 16 -31 38 -45 49 -29 3 6 20
17 36 26 17 8 40 25 52 36 12 12 27 21 33 21 5 0 10 5 10 10 0 6 5 10 11 10 6
0 31 16 55 36 24 20 44 32 44 28 0 -5 4 -4 8 2 4 5 39 32 77 59 39 27 72 53
73 57 2 5 9 8 16 8 7 0 21 9 31 20 10 11 24 20 32 20 7 0 13 4 13 8 0 4 15 16
33 27 17 10 37 23 42 27 6 4 25 19 43 34 17 14 32 23 32 20 0 -3 12 4 26 17
14 12 27 21 30 20 2 -2 12 5 22 15 10 9 27 23 38 30 24 15 246 169 259 179 6
5 37 26 70 48 33 22 62 43 65 46 15 16 202 139 213 139 7 0 8 -3 2 -8 -5 -4
-10 -34 -11 -67 0 -33 -4 -80 -7 -105 -3 -25 -7 -70 -8 -100 -1 -30 -6 -63
-12 -74 -7 -14 -6 -16 4 -11 8 6 10 4 4 -5 -5 -7 -9 -38 -10 -69 -1 -31 -5
-83 -8 -116 -14 -137 -20 -203 -21 -262 0 -35 -3 -63 -6 -63 -3 0 -6 -17 -6
-38 -5 -131 -8 -162 -18 -162 -6 0 -4 -5 4 -10 8 -5 11 -10 5 -10 -5 0 -10
-26 -11 -58 -1 -58 -10 -180 -21 -287 -3 -33 -6 -84 -7 -113 0 -30 -4 -52 -10
-52 -6 0 -4 -5 4 -10 8 -5 10 -10 4 -10 -14 0 -14 -60 0 -62 10 -1 94 -7 126
-8 8 -1 24 1 35 3 11 2 30 0 43 -4 12 -5 22 -5 22 -1 0 4 16 7 35 7 19 0 35
-4 35 -10 0 -7 3 -7 8 0 10 13 72 14 72 1 0 -7 3 -8 8 -1 4 6 21 10 37 10 17
0 33 -4 37 -10 5 -7 8 -7 8 0 0 12 149 13 168 1 7 -4 12 -3 12 1 0 5 19 9 43
8 l42 0 0 45 c1 25 -1 49 -4 55 -3 5 -6 44 -7 85 -1 41 -3 75 -4 75 -4 0 -9
60 -11 125 -1 36 -6 71 -12 78 -6 8 -5 12 4 12 9 0 10 3 4 8 -6 4 -11 30 -11
57 -1 28 -4 79 -8 115 -4 36 -8 85 -8 110 0 25 -5 53 -10 63 -6 11 -5 17 2 17
6 0 8 5 3 13 -4 6 -8 37 -8 68 -1 30 -5 61 -9 67 -4 7 -2 12 6 12 9 0 10 2 2
8 -7 4 -13 36 -13 72 -1 36 -4 79 -7 95 -3 17 -7 62 -9 100 -2 39 -6 93 -10
120 -3 28 -7 82 -10 120 -3 39 -7 94 -9 123 -3 28 -2 52 2 52 7 0 256 -171
304 -209 15 -12 30 -21 34 -21 4 1 10 -2 13 -7 3 -5 29 -25 56 -43 28 -19 52
-37 53 -42 2 -4 9 -8 16 -8 7 0 21 -9 31 -20 10 -11 24 -20 31 -20 7 0 14 -3
16 -8 2 -4 52 -41 111 -82 153 -106 270 -188 282 -197 6 -5 33 -24 60 -43 28
-19 52 -38 53 -42 2 -4 8 -8 13 -8 9 0 68 -38 79 -51 3 -3 41 -30 85 -59 44
-29 82 -57 83 -62 2 -4 8 -8 14 -8 5 0 16 -7 25 -15 14 -14 20 -8 66 67 28 46
55 84 59 86 4 2 8 11 8 19 0 9 8 22 18 30 11 10 12 12 2 8 -13 -6 -13 -5 0 7
17 15 30 36 61 96 13 23 26 42 31 42 4 0 8 5 8 11 0 6 20 42 45 80 24 38 42
69 38 69 -4 0 2 7 13 15 10 8 15 15 11 15 -5 0 -1 7 7 16 29 29 19 42 -64 81
-36 17 -117 56 -180 86 -63 30 -125 58 -137 61 -13 4 -23 12 -23 17 0 5 -6 9
-13 9 -8 0 -42 14 -78 32 -35 17 -66 32 -69 33 -3 1 -49 22 -102 48 -54 26
-102 47 -108 47 -5 0 -10 5 -10 10 0 6 -6 10 -14 10 -7 0 -68 27 -135 60 -67
33 -128 60 -135 60 -8 0 -19 7 -26 15 -7 9 -15 13 -18 10 -3 -3 -14 3 -25 12
-10 10 -21 17 -23 16 -2 -2 -52 20 -111 48 -60 29 -138 66 -176 83 l-68 32
153 74 c84 40 155 74 158 75 3 1 41 19 85 40 44 22 83 38 88 37 4 -1 7 2 7 8
0 5 8 10 19 10 10 0 24 6 30 14 7 8 26 18 42 21 16 4 29 11 29 16 0 5 5 9 10
9 6 0 54 21 108 47 53 26 100 46 105 45 4 -1 7 2 7 8 0 5 6 10 13 10 6 0 65
27 130 59 64 33 117 58 117 55 0 -2 17 6 38 19 20 13 40 25 45 25 4 1 74 34
155 73 81 39 152 72 159 72 7 0 10 4 7 8 -2 4 5 9 16 11 18 3 16 11 -31 88
-28 47 -56 88 -61 91 -5 3 -9 9 -9 13 1 3 -31 60 -71 126 -40 67 -79 133 -87
148 -8 15 -18 29 -23 30 -4 2 -8 10 -8 18 0 8 -3 14 -8 14 -4 0 -14 15 -22 33
-23 52 -31 57 -62 39 -16 -9 -28 -20 -28 -24 0 -4 -7 -8 -15 -8 -8 0 -15 -5
-15 -11 0 -5 -4 -8 -8 -5 -5 3 -15 -4 -22 -15 -8 -10 -19 -19 -25 -19 -5 0
-22 -10 -37 -23 -15 -12 -66 -49 -114 -82 -47 -33 -95 -68 -107 -77 -11 -10
-24 -18 -28 -18 -4 0 -14 -6 -21 -13 -7 -7 -42 -33 -78 -57 -36 -24 -69 -48
-75 -53 -8 -6 -147 -105 -265 -187 -8 -6 -53 -37 -100 -70 -47 -33 -93 -66
-103 -73 -18 -11 -48 -34 -74 -57 -7 -6 -13 -7 -13 -3 0 4 -4 3 -8 -2 -4 -6
-43 -36 -87 -68 -44 -31 -89 -63 -100 -72 -29 -23 -32 -19 -30 38 2 28 4 52 5
52 1 0 4 36 5 80 2 44 4 80 5 80 3 0 9 56 14 130 12 180 17 243 22 280 3 22 7
73 7 112 1 40 5 73 8 73 3 0 6 24 6 53 0 28 4 81 8 117 4 36 8 91 8 122 1 32
6 58 11 58 5 0 3 7 -4 15 -7 8 -8 15 -3 15 5 0 9 17 10 38 0 20 4 78 8 127 4
50 8 110 10 135 2 25 6 73 10 108 5 55 4 62 -12 63 -55 3 -702 3 -715 1z"/>
</g>
</svg>
